  <svg xmlns="http://www.w3.org/2000/svg" viewBox="0 0 311.5 68.2">
    <path fill="#231815" d="M120.6,58.7c-.2.3-.6.6-1,.8l-.4-.5c.3-.2.6-.4.7-.7.1-.2.1-.5.1-1.1v-5.1h.9v5c0,.9,0,1.2-.3,1.6"/>
    <polygon fill="#231815" points="122.5 58.3 122.5 53.6 125.4 53.6 125.3 54.3 123.3 54.3 123.3 55.5 124.9 55.5 124.9 56.2 123.3 56.2 123.3 57.5 125.4 57.5 125.4 58.3 122.5 58.3"/>
    <path fill="#231815" d="M127.6,58.3c-.1.5-.6.8-1.1,1l-.4-.4c.3-.1.5-.3.6-.5,0-.2.1-.4.1-.8v-3.9h.8v3.8c0,.4,0,.6,0,.8"/>
    <path fill="#231815" d="M132.3,57.9c-.3.3-.7.4-1.4.4s-1.4-.3-1.6-.7c-.1-.3-.2-.5-.2-1v-3h.8v2.9c0,.3,0,.6,0,.7.1.3.5.5.9.5s.6-.1.8-.3c.1-.2.2-.3.2-.8v-3h.8v3c0,.7,0,1-.4,1.3"/>
    <polygon fill="#231815" points="139.3 52.9 137.1 52.9 137.1 54.7 138.9 54.7 138.9 55.4 137.1 55.4 137.1 58.3 136.3 58.3 136.3 52.2 139.5 52.2 139.3 52.9"/>
    <path fill="#231815" d="M141.1,54.3v1.4h.5c.5,0,.7,0,.9-.2.2-.1.2-.3.2-.5s-.2-.5-.4-.6c-.2,0-.3,0-.6,0h-.5ZM142.8,58.3c-.1-.2-.3-.5-.4-.7-.4-.6-.6-.9-.9-1.1-.1-.1-.2-.1-.4-.2v2h-.8v-4.6h1.4c.7,0,1.1,0,1.3.3.3.2.5.6.5,1,0,.8-.5,1.3-1.3,1.3,0,0,.2.1.2.2.1.2.4.5.7.9.3.4.7.9.7,1h-1Z"/>
    <polygon fill="#231815" points="145 58.3 145 53.6 147.9 53.6 147.8 54.3 145.8 54.3 145.8 55.5 147.5 55.5 147.5 56.2 145.8 56.2 145.8 57.5 148 57.5 148 58.3 145 58.3"/>
    <polygon fill="#231815" points="149.3 58.3 149.3 53.6 152.2 53.6 152.1 54.3 150.1 54.3 150.1 55.5 151.8 55.5 151.8 56.2 150.1 56.2 150.1 57.5 152.3 57.5 152.3 58.3 149.3 58.3"/>
    <rect fill="#231815" x="155.6" y="52.2" width=".9" height="6.1"/>
    <path fill="#231815" d="M160.7,58.3l-1.3-2.3c-.3-.5-.6-1.1-.6-1.2,0,.2,0,.7,0,1.3v2.2s-.8,0-.8,0v-4.6h.9l1.4,2.3c.3.5.5,1,.6,1.1,0-.1,0-.7,0-1.2v-2.2s.8,0,.8,0v4.6h-.9Z"/>
    <polygon fill="#231815" points="166.2 54.3 164.8 54.3 164.8 58.3 164 58.3 164 54.3 162.7 54.3 162.7 53.6 166.3 53.6 166.2 54.3"/>
    <polygon fill="#231815" points="167.2 58.3 167.2 53.6 170.1 53.6 170 54.3 168 54.3 168 55.5 169.7 55.5 169.7 56.2 168.1 56.2 168.1 57.5 170.2 57.5 170.2 58.3 167.2 58.3"/>
    <path fill="#231815" d="M172.4,54.3v1.4h.5c.5,0,.7,0,.9-.2.1-.1.2-.3.2-.5s-.2-.5-.5-.6c-.2,0-.3,0-.6,0h-.5ZM174.1,58.3c-.1-.2-.3-.5-.4-.7-.4-.6-.6-.9-.9-1.1-.1-.1-.2-.1-.4-.2v2h-.8v-4.6h1.4c.7,0,1.1,0,1.3.3.3.2.5.6.5,1,0,.8-.5,1.3-1.3,1.3,0,0,.2.1.2.2.1.2.4.5.7.9.3.4.7.9.7,1h-1Z"/>
    <path fill="#231815" d="M178.9,58.3l-1.3-2.3c-.3-.5-.6-1.1-.6-1.2,0,.2,0,.7,0,1.3v2.2s-.8,0-.8,0v-4.6h.9l1.4,2.3c.3.5.5,1,.6,1.1,0-.1,0-.7,0-1.2v-2.2s.8,0,.8,0v4.6h-.9Z"/>
    <path fill="#231815" d="M182.8,54.4c0,.1-.6,1.9-.7,2h1.3c0-.2-.6-1.9-.7-2M184.1,58.3l-.4-1.2h-1.7l-.4,1.2h-.9l1.7-4.7h1l1.7,4.7h-.9Z"/>
    <polygon fill="#231815" points="188.9 54.3 187.6 54.3 187.6 58.3 186.8 58.3 186.8 54.3 185.4 54.3 185.4 53.6 189 53.6 188.9 54.3"/>
    <rect fill="#231815" x="190" y="53.6" width=".8" height="4.6"/>
    <path fill="#231815" d="M195.4,57c.1-.3.1-.6.1-1s0-.9-.2-1.2c-.2-.4-.6-.6-1.1-.6s-.8.2-1,.5c-.2.3-.2.7-.2,1.2s.1,1.1.3,1.4c.2.3.5.5,1,.5s.9-.2,1-.7M192.8,57.7c-.4-.5-.6-1-.6-1.8,0-1.5.8-2.4,2.1-2.4s1.3.2,1.7.7c.3.4.5.9.5,1.7s-.1,1.3-.5,1.7c-.4.5-.9.7-1.6.7s-1.2-.2-1.6-.6"/>
    <path fill="#231815" d="M200.5,58.3l-1.3-2.3c-.3-.5-.6-1.1-.6-1.2,0,.2,0,.7,0,1.3v2.2s-.8,0-.8,0v-4.6h.9l1.4,2.3c.3.5.5,1,.6,1.1,0-.1,0-.7,0-1.2v-2.2s.8,0,.8,0v4.6h-.9Z"/>
    <path fill="#231815" d="M204.4,54.4c0,.1-.6,1.9-.7,2h1.3c0-.2-.6-1.9-.7-2M205.7,58.3l-.4-1.2h-1.7l-.4,1.2h-.9l1.7-4.7h1l1.7,4.7h-.9Z"/>
    <polygon fill="#231815" points="210.2 58.3 207.5 58.3 207.5 53.6 208.3 53.6 208.3 57.6 210.3 57.6 210.2 58.3"/>
    <path fill="#231815" d="M215.3,58.3c-.8,0-1.4-.3-1.9-.9-.4-.6-.7-1.3-.7-2.2s.1-1.3.4-1.8c.5-.9,1.3-1.4,2.2-1.4s1.1.2,1.5.5l-.4.6c-.3-.2-.7-.4-1.1-.4-.6,0-1.1.3-1.4.9-.2.4-.3.9-.3,1.6s0,1.1.2,1.4c.3.7.8,1,1.5,1s.8-.1,1.1-.4l.4.6c-.5.3-1,.5-1.6.5"/>
    <rect fill="#231815" x="218" y="53.6" width=".8" height="4.6"/>
    <polygon fill="#231815" points="223.4 54.3 222.1 54.3 222.1 58.3 221.3 58.3 221.3 54.3 219.9 54.3 219.9 53.6 223.5 53.6 223.4 54.3"/>
    <path fill="#231815" d="M226.3,56.4v1.9h-.9v-1.9l-1.7-2.8h1l.8,1.4c.1.2.2.4.3.6,0-.1.2-.3.3-.6l.8-1.4h1l-1.7,2.8Z"/>
    <path fill="#231815" d="M233.7,53.4c-.3-.4-.7-.5-1.3-.5h-.7v4.7h.7c.7,0,1.1-.2,1.4-.7.2-.4.3-1,.3-1.6,0-.9,0-1.5-.5-1.9M234.5,57.4c-.4.5-1,.8-2,.8h-1.5v-6.1h1.4c1.1,0,1.7.2,2.3,1,.4.5.5,1.2.5,2s-.3,1.7-.7,2.2"/>
    <polygon fill="#231815" points="236.5 58.3 236.5 53.6 239.4 53.6 239.3 54.3 237.3 54.3 237.3 55.5 238.9 55.5 238.9 56.2 237.3 56.2 237.3 57.5 239.4 57.5 239.4 58.3 236.5 58.3"/>
    <path fill="#231815" d="M242.7,58.3h-.8l-1.8-4.7h.9l.9,2.5c.2.5.3,1,.3,1,0,0,.1-.6.3-1l1-2.5h.9l-1.8,4.7Z"/>
    <polygon fill="#231815" points="245.4 58.3 245.4 53.6 248.4 53.6 248.2 54.3 246.3 54.3 246.3 55.5 247.9 55.5 247.9 56.2 246.3 56.2 246.3 57.5 248.4 57.5 248.4 58.3 245.4 58.3"/>
    <polygon fill="#231815" points="252.4 58.3 249.7 58.3 249.7 53.6 250.6 53.6 250.6 57.6 252.5 57.6 252.4 58.3"/>
    <path fill="#231815" d="M256.4,57c.1-.3.2-.6.2-1s0-.9-.2-1.2c-.2-.4-.6-.6-1.1-.6s-.8.2-1,.5c-.2.3-.2.7-.2,1.2s.1,1.1.3,1.4c.2.3.5.5,1,.5s.9-.2,1-.7M253.8,57.7c-.4-.5-.6-1-.6-1.8,0-1.5.8-2.4,2.1-2.4s1.3.2,1.7.7c.3.4.5.9.5,1.7s-.2,1.3-.5,1.7c-.4.5-.9.7-1.7.7s-1.2-.2-1.6-.6"/>
    <path fill="#231815" d="M259.6,54.3v1.6h.7c.4,0,.6,0,.7-.2.1-.1.2-.3.2-.6s0-.4-.2-.6c-.2-.1-.4-.2-.8-.2h-.6ZM261.6,56.2c-.3.2-.6.3-1.2.3h-.8v1.8h-.8v-4.6h1.3c.8,0,1.1,0,1.3.2.4.2.7.7.7,1.2s-.3,1-.6,1.2"/>
    <path fill="#231815" d="M267.6,58.3l-.2-2.8c0-.4,0-.9,0-.9,0,0,-.1.6-.3.9l-.9,2.8h-.7l-.9-2.8c-.1-.3-.2-.9-.2-1,0,0,0,.6,0,1l-.2,2.8h-.8l.5-4.6h1.1l.8,2.6c.1.3.2.9.2.9,0,0,.1-.6.2-.9l.8-2.6h1.1l.5,4.6h-.8Z"/>
    <polygon fill="#231815" points="269.8 58.3 269.8 53.6 272.7 53.6 272.6 54.3 270.6 54.3 270.6 55.5 272.2 55.5 272.2 56.2 270.6 56.2 270.6 57.5 272.8 57.5 272.8 58.3 269.8 58.3"/>
    <path fill="#231815" d="M276.8,58.3l-1.3-2.3c-.3-.5-.6-1.1-.6-1.2,0,.2,0,.7,0,1.3v2.2s-.8,0-.8,0v-4.6h.9l1.4,2.3c.3.5.5,1,.6,1.1,0-.1,0-.7,0-1.2v-2.2s.8,0,.8,0v4.6h-.9Z"/>
    <polygon fill="#231815" points="282.2 54.3 280.9 54.3 280.9 58.3 280 58.3 280 54.3 278.7 54.3 278.7 53.6 282.3 53.6 282.2 54.3"/>
    <path fill="#231815" d="M287.4,58.3c-.8,0-1.4-.3-1.9-.9-.4-.6-.7-1.3-.7-2.2s.1-1.3.4-1.8c.5-.9,1.3-1.4,2.2-1.4s1.1.2,1.5.5l-.4.6c-.3-.2-.7-.4-1.1-.4-.6,0-1.1.3-1.4.9-.2.4-.3.9-.3,1.6s0,1.1.2,1.4c.3.7.8,1,1.5,1s.8-.1,1.1-.4l.4.6c-.5.3-1,.5-1.6.5"/>
    <polygon fill="#231815" points="290.1 58.3 290.1 53.6 293 53.6 292.9 54.3 290.9 54.3 290.9 55.5 292.6 55.5 292.6 56.2 290.9 56.2 290.9 57.5 293.1 57.5 293.1 58.3 290.1 58.3"/>
    <path fill="#231815" d="M297.1,58.3l-1.3-2.3c-.3-.5-.6-1.1-.6-1.2,0,.2,0,.7,0,1.3v2.2s-.8,0-.8,0v-4.6h.9l1.4,2.3c.3.5.5,1,.6,1.1,0-.1,0-.7,0-1.2v-2.2s.8,0,.8,0v4.6h-.9Z"/>
    <polygon fill="#231815" points="302.5 54.3 301.2 54.3 301.2 58.3 300.4 58.3 300.4 54.3 299 54.3 299 53.6 302.6 53.6 302.5 54.3"/>
    <polygon fill="#231815" points="303.6 58.3 303.6 53.6 306.5 53.6 306.4 54.3 304.4 54.3 304.4 55.5 306.1 55.5 306.1 56.2 304.4 56.2 304.4 57.5 306.6 57.5 306.6 58.3 303.6 58.3"/>
    <path fill="#231815" d="M308.7,54.3v1.4h.4c.5,0,.7,0,.9-.2.2-.1.2-.3.2-.5s-.2-.5-.4-.6c-.2,0-.3,0-.6,0h-.5ZM310.4,58.3c-.1-.2-.3-.5-.4-.7-.4-.6-.6-.9-.9-1.1-.1-.1-.2-.1-.4-.2v2h-.8v-4.6h1.4c.7,0,1.1,0,1.3.3.3.2.5.6.5,1,0,.8-.5,1.3-1.3,1.3,0,0,.2.1.2.2.2.2.4.5.7.9.3.4.7.9.7,1h-1Z"/>
    <path fill="#231815" d="M141,32.5h-4.6v-1.5h11.5v1.5h-4.6s0,0,0,0c0,.9.2,1.6.6,2.1.4.6.9,1,1.4,1.3.6.3,1.2.5,1.8.7.6.1,1.1.2,1.5.2,0,0,.1,0,0,0,0,0,0,0,0,0l-1.2,1.3c-.5,0-1,0-1.5-.2-.5-.1-1.1-.3-1.6-.6-.5-.2-.9-.5-1.3-.9-.4-.3-.7-.7-.9-1.1,0,0-.1-.3-.1-.3,0,0,0,.2-.1.3-.2.4-.4.7-.8,1-.3.3-.7.6-1.1.8-.5.3-1.1.5-1.7.7-.6.2-1.1.2-1.6.2l-1.1-1.3s0,0,0,0c0,0,0,0,0,0,.4,0,1,0,1.6-.2.6-.1,1.2-.4,1.8-.7.5-.3,1-.8,1.4-1.3.4-.5.6-1.2.6-2,0,0,0,0,0,0M141.1,41h-6.5v-1.5h15.1v1.5h-6.5v4.7h-2.2v-4.7Z"/>
    <path fill="#231815" d="M121.7,32.5h-2.3v-1.5h6.9v1.5h-2.3v2c0,.8,0,1.5.3,2.2.2.6.4,1.2.7,1.7.3.5.6.8,1,1.1.4.3.8.5,1.2.6,0,0,0,0,0,0,0,0,0,0,0,0l-1.1,1.2c-.4,0-.9-.4-1.6-.9-.7-.6-1.1-1.2-1.4-1.8,0-.2-.1-.4-.1-.4,0,.3,0,.3-.1.4-.2.7-.7,1.3-1.3,1.8-.7.6-1.2.9-1.7.9l-1.1-1.2s0,0,0,0c0,0,0,0,0,0,.4-.1.8-.3,1.2-.6.4-.3.7-.7,1-1.1.3-.5.5-1,.7-1.7.2-.6.2-1.3.2-2.1v-2Z"/>
    <path fill="#231815" d="M127.7,31c0,.1.1.3.1.5v3.8h-2.4v1.5h2.4v8.9h1.9v-14.9h-2.3c.1,0,.2,0,.3.2"/>
    <path fill="#231815" d="M130.6,31c0,.1.1.3.1.5v14.2h1.9v-14.9h-2.3c.1,0,.2,0,.2.2"/>
    <path fill="#231815" d="M170.6,32.5h-2.3v-1.5h6.9v1.5h-2.3v2c0,.8,0,1.5.3,2.2.2.6.4,1.2.7,1.7.3.5.6.8,1,1.1.4.3.8.5,1.2.6,0,0,0,0,0,0,0,0,0,0,0,0l-1.1,1.2c-.4,0-.9-.4-1.6-.9-.7-.6-1.2-1.2-1.4-1.8,0,0,-.1-.4-.1-.4,0,0,-.1.3-.1.4-.2.7-.7,1.3-1.3,1.8-.7.6-1.2.9-1.7.9l-1.1-1.2s0,0,0,0c0,0,0,0,0,0,.4-.1.8-.3,1.2-.6.4-.3.7-.7,1-1.1.3-.5.5-1,.7-1.7.2-.6.3-1.3.3-2.1v-2Z"/>
    <path fill="#231815" d="M176.6,31c0,.1.1.3.1.5v3.8h-2.4v1.5h2.4v8.9h1.9v-14.9h-2.3c.1,0,.2,0,.3.2"/>
    <path fill="#231815" d="M179.5,31c0,.1.1.3.1.5v14.2h1.9v-14.9h-2.3c.1,0,.2,0,.3.2"/>
    <path fill="#231815" d="M157.6,37.9h-6.4v-1.5h10.9c.2-.3.4-.7.4-1.1,0-.4,0-.8,0-1.5v-.9c0-.1,0-.2,0-.3,0,0,-.1,0-.3,0h-9.5v-1.5h11.7c0,0,0,0,.1,0,0,0,0,0,0,.2v2.8c0,.7,0,1.2-.1,1.5,0,.3-.2.6-.4.9h2.2v1.5h-6.4v2.5h4.5c0,0,.1,0,.1,0,0,0,0,0,0,.1v5.2h-2.1v-3.6c0,0,0-.1,0-.1,0,0,0,0-.1,0h-9.2v-1.5h4.5v-2.5Z"/>
    <path fill="#231815" d="M207.2,31.5c-.6,0-1.2.2-1.7.7-.5.5-.7,1.1-.7,1.7s.2,1.2.7,1.7c.5.5,1,.7,1.7.7s1.2-.2,1.7-.7c.5-.5.7-1.1.7-1.7s-.2-1.2-.7-1.7c-.5-.5-1-.7-1.7-.7M207.2,30c1.2,0,2.3.4,3.1,1.2.9.8,1.3,1.7,1.3,2.8s-.4,2.1-1.3,2.8c-.9.8-1.9,1.2-3.1,1.2s-2.3-.4-3.1-1.2c-.9-.8-1.3-1.7-1.3-2.8s.4-2,1.3-2.8c.9-.8,1.9-1.2,3.1-1.2M210.7,40.7v5h-2.1v-5h-2.9v5h-2.1v-5h-4v-1.6h15.1v1.6h-4Z"/>
    <path fill="#231815" d="M192.3,39.6c-.4-.2-.8-.5-1.1-.9-.4-.5-.8-1.1-1.1-1.8-.3-.7-.4-1.5-.4-2.4v-2.1h3v-1.5h-8.2v1.5h3v2.1c0,.8-.1,1.5-.4,2.2-.2.6-.6,1.2-1,1.7-.4.5-.8.8-1.2,1.1-.4.3-.9.5-1.3.6,0,0,0,0,0,0s0,0,0,0l1.1,1.2c.3,0,.7-.2,1-.4.4-.2.7-.4,1-.7.4-.3.7-.7,1.1-1,.3-.4.6-.8.7-1.2,0,0,.1-.4.1-.4,0,0,0,.3.1.4.2.4.4.8.7,1.2.3.4.7.7,1.1,1,.3.3.7.5,1,.7.4.2.7.3,1,.4l1.1-1.2s0,0,0,0,0,0,0,0c-.4,0-.8-.3-1.2-.5"/>
    <path fill="#231815" d="M196.9,35.1v-4.3h-2.6c.2,0,.3,0,.4.2.1.2.2.3.2.5v14.2h2v-9h2.2v-1.5h-2.2Z"/>
    <path fill="#231815" d="M217.6,31.2c.1.1.2.3.2.5v4.5c0,.7.2,1.3.5,1.6.3.3.8.5,1.5.5h9.5v-1.5h-9c0,0-.2,0-.2,0,0,0,0-.1,0-.3v-3.8h9.2v-1.5h-11.8c.1,0,.2,0,.3.2"/>
    <path fill="#231815" d="M243.3,31c.1.2.2.3.2.5v14.2h2v-14.9h-2.5c.1,0,.2,0,.3.2"/>
    <path fill="#231815" d="M240.4,39.4c-.5-.3-.9-.7-1.3-1.1-.4-.5-.7-1-1-1.7-.3-.6-.4-1.4-.4-2.2v-3.4h-2.7c.1,0,.3,0,.3.2.1.1.2.3.2.5v2.8c0,.7-.1,1.3-.3,1.9-.2.6-.5,1.1-.8,1.5-.4.6-.9,1-1.4,1.4-.5.3-1,.6-1.5.7,0,0,0,0,0,0,0,0,0,0,0,0l1.1,1.2c.4,0,.7-.3,1.1-.5.4-.2.8-.5,1.1-.8.4-.3.7-.6,1-1,.3-.3.5-.7.7-1,0,0,.1-.3.1-.3,0,0,.1.3.1.3.1.3.4.7.6,1,.3.3.6.7,1,1,.4.3.7.6,1.1.8.4.2.8.4,1.1.5l1.1-1.2s0,0,0,0,0,0,0,0c-.4,0-.8-.3-1.3-.5"/>
    <path fill="#231815" d="M222,39.5c0,0,.1,0,.2.1.1.1.2.3.2.5v2.6h-6.5v1.5h15.1v-1.5h-6.5v-3.2h-2.5Z"/>
    <path fill="#231815" d="M260.5,31c0,.1.1.3.1.5v3.5h-1.3v-4.2h-2.4c.1,0,.2,0,.3.2,0,.1.1.3.1.5v14.2h2v-9.1h1.3v9.1h1.9v-14.9h-2.4c.1,0,.2,0,.3.2"/>
    <path fill="#231815" d="M255.9,31h-6.3v1.5h4.3c0,.9,0,1.7-.3,2.4-.2.7-.4,1.3-.7,1.9-.5,1-1.2,1.7-2,2.2-.8.5-1.6.9-2.5,1.1,0,0,0,0,0,0,0,0,0,0,0,0l1.1,1c.9-.2,1.7-.6,2.7-1.1.9-.6,1.7-1.3,2.3-2.3.5-.7.8-1.4,1.1-2.3.3-.8.4-1.8.4-2.8v-1.6s0,0,0-.1c0,0,0,0-.1,0"/>
    <path fill="#231815" d="M271.6,36.1c0,.1,0,.2,0,.2,0,0-.1,0-.2,0h-3.2c-.1,0-.2,0-.2,0,0,0,0,0,0-.2v-1.5h3.8v1.5ZM271.1,30.9c.1,0,.2,0,.3.1.1,0,.2.2.2.4v1.6h-3.8v-2h-2.4c0,0,.1,0,.2.1.1,0,.2.2.2.4v5c0,.5.1.8.4,1,.2.2.6.4,1,.4h5.2c.4,0,.8-.1,1-.4.2-.2.4-.6.4-1v-5.7h-2.5Z"/>
    <path fill="#231815" d="M278.6,33.2v-2.4h-2.5c.1,0,.2,0,.3.2.1.2.2.3.2.5v6.9h2.1v-3.5h2.2v-1.7h-2.2Z"/>
    <path fill="#231815" d="M270.5,44.2c0,0-.1,0-.1,0,0,0,0,0,0,0v-.9h7.9c.1,0,.2,0,.3,0,0,0,0-.1,0-.2v-3.4c0,0,0-.2,0-.2,0,0,-.1-.1-.3-.1h-10v1.5h8.3v1.1h-8.3v2.6c0,.5.1.9.3,1.1.2.2.6.3,1.1.3h9.1v-1.5h-8.2Z"/>
    <path fill="#231815" d="M290.6,31c0,.1.2.3.2.5v2.6h-2.6v1.5h2.6v5.7h1.9v-10.4h-2.4c.1,0,.2,0,.3.2"/>
    <path fill="#231815" d="M293.5,31c.1.1.2.3.2.5v9.8h1.9v-10.4h-2.4c.1,0,.2,0,.3.2"/>
    <path fill="#231815" d="M289.7,38.3c-.4-.1-.9-.3-1.3-.6-.4-.3-.8-.6-1.1-1.1-.2-.4-.4-.8-.6-1.3-.2-.5-.2-1-.2-1.6v-2.8h-2.5c.1,0,.3,0,.3.2,0,.2,0,.3,0,.5v2.1c0,.7,0,1.2-.2,1.7-.2.5-.4.9-.6,1.3-.3.4-.7.8-1.1,1-.4.2-.8.4-1.3.5,0,0,0,0,0,0,0,0,0,0,0,0l1,1.1c.2,0,.5-.1.9-.3.4-.2.7-.4,1.1-.7.2-.2.5-.4.7-.6.2-.2.4-.5.5-.8,0,0,.1-.3.1-.3,0,0,0,.3.1.3.1.3.3.5.5.8.2.2.4.4.7.6.4.3.7.5,1.1.7.4.2.6.3.8.3l1-1.1s0,0,0,0,0,0,0,0"/>
    <path fill="#231815" d="M287.4,44.1c0,0-.1,0-.2,0,0,0,0-.1,0-.2v-3.5h-2.1v4c0,.5.1.8.3,1,.2.2.6.3,1,.3h9.3v-1.5h-8.3Z"/>
    <path fill="#231815" d="M309.2,31c.1.2.2.3.2.5v3.7h-3v1.5h3v8.9h2v-14.9h-2.7c.2,0,.3,0,.4.2"/>
    <path fill="#231815" d="M301.1,39.4c0,0-.2,0-.2,0,0,0,0-.1,0-.3v-2.4h4.6v-1.5h-4.6v-2.6h6v-1.5h-8.1v7.8c0,.7.2,1.3.5,1.6.3.3.9.5,1.5.5h6.7v-1.5h-6.3Z"/>
    <path fill="#81acdc" d="M45.4,29.5c-2.4-9.5-8.2-18-16.9-23.6C19.8.4,9.7-1.1,0,.8c2.4,9.5,8.2,18,16.9,23.6,8.7,5.5,18.9,7.1,28.5,5.2Z"/>
    <path fill="#308ccc" d="M45.4,29.5c-4-6.1-10.1-10.6-17.5-12.3-7.4-1.7-14.9-.4-21.1,3.3,4,6.1,10.1,10.6,17.5,12.3,7.4,1.7,14.9.4,21.1-3.3Z"/>
    <path fill="#0070bd" d="M45.4,29.5c-4.6-3-10.2-4.3-15.9-3.2-5.7,1-10.4,4.3-13.7,8.7,4.6,3,10.2,4.3,15.9,3.2,5.7-1,10.4-4.3,13.7-8.7Z"/>
    <path fill="#0070bd" d="M52.1,64.2c-.9,1.5-1.4,2.2-2.9,4.1l-4.2-2.8c1.5-2.4,1.8-3,2.5-4.3,1-2.1,1.4-4.3,1.4-7.4v-24.2h5.6v29.2c-.8,2.6-1.2,3.5-2.4,5.5Z"/>
    <path fill="#0070bd" d="M82.3,53.7c-2.6,2.8-6.4,4.2-11.5,4.2h-10.5v-28.4h10.5c5.4,0,8.7,1.2,11.5,4.2,2.5,2.6,3.8,6.2,3.8,9.9s-1.4,7.4-3.9,10.1ZM77.1,36c-1.5-1.1-3.7-1.7-6.8-1.7h-4.3v18.8h4.3c6.4,0,10.1-3.4,10.1-9.5s-1.2-6.2-3.3-7.7Z"/>
    <path fill="#0070bd" d="M111.9,36c-1.9-1.3-4-2-6.5-2-5.5,0-9.4,3.9-9.4,9.2s4,10.1,10.2,10.1,3.7-.3,6.2-1.3l1,4.6c-1.8.8-2.5,1.1-3.8,1.4-1.4.3-2.9.5-4.6.5-4.4,0-7.6-1.1-10.3-3.5-3-2.7-4.8-6.9-4.8-11.4s1.6-7.9,4.3-10.6c2.8-2.8,6-4,10.7-4s6.5.9,8.9,2.7l-2.1,4.3Z"/>
  </svg>
