  <svg xmlns="http://www.w3.org/2000/svg" viewBox="0 0 318.06 67.93">
    <g fill="#fff">
      <path d="M122.06,58.25c-.24.34-.62.62-1.03.77l-.41-.48c.32-.16.59-.43.72-.67.11-.22.15-.5.15-1.17v-5.21h.88v5.14c0,.9-.07,1.26-.31,1.61"/>
      <polygon points="123.98 57.75 123.98 52.98 126.98 52.98 126.86 53.68 124.84 53.68 124.84 54.91 126.53 54.91 126.53 55.61 124.85 55.61 124.85 57.02 127.05 57.02 127.05 57.75 123.98 57.75"/>
      <path d="M129.23,57.75c-.14.49-.59.85-1.13,1.04l-.41-.45c.28-.14.53-.36.64-.55.1-.17.13-.43.13-.85v-3.96h.84v3.94c0,.37-.02.65-.07.84"/>
      <path d="M134.12,57.37c-.32.3-.76.46-1.42.46-.92,0-1.42-.34-1.66-.75-.14-.27-.19-.47-.19-1.01v-3.09h.85v2.93c0,.34.02.6.07.73.13.31.47.49.93.49.37,0,.65-.11.8-.3.14-.18.18-.34.18-.81v-3.04h.86v3.08c0,.76-.1,1.03-.43,1.32"/>
      <polygon points="141.32 52.21 139.06 52.21 139.06 54.11 140.91 54.11 140.91 54.82 139.06 54.82 139.06 57.75 138.18 57.75 138.18 51.5 141.44 51.5 141.32 52.21"/>
      <path d="M143.16,53.66v1.45h.46c.47,0,.72-.05.9-.19.15-.12.24-.31.24-.56,0-.3-.17-.53-.46-.63-.16-.05-.35-.07-.63-.07h-.53ZM144.92,57.75c-.14-.24-.29-.47-.45-.74-.41-.66-.65-.96-.89-1.14-.14-.12-.25-.15-.42-.17v2.04h-.84v-4.77h1.42c.72,0,1.09.08,1.37.29.34.25.55.63.55,1.07,0,.79-.52,1.3-1.32,1.33.08.06.17.14.23.22.15.19.43.54.68.88.27.39.69.95.71.98h-1.03Z"/>
      <polygon points="147.12 57.75 147.12 52.98 150.11 52.98 149.99 53.68 147.97 53.68 147.97 54.91 149.66 54.91 149.66 55.61 147.98 55.61 147.98 57.02 150.18 57.02 150.18 57.75 147.12 57.75"/>
      <polygon points="151.53 57.75 151.53 52.98 154.53 52.98 154.41 53.68 152.39 53.68 152.39 54.91 154.07 54.91 154.07 55.61 152.4 55.61 152.4 57.02 154.6 57.02 154.6 57.75 151.53 57.75"/>
      <rect x="158.01" y="51.5" width=".89" height="6.25"/>
      <path d="M163.28,57.75l-1.36-2.39c-.28-.47-.6-1.14-.63-1.23.02.24.05.73.06,1.33l.04,2.29h-.84v-4.77h.96l1.39,2.41c.29.49.51.98.57,1.11-.01-.11-.07-.72-.08-1.28l-.03-2.23h.82v4.77h-.88Z"/>
      <polygon points="168.86 53.68 167.48 53.68 167.48 57.75 166.64 57.75 166.64 53.68 165.27 53.68 165.27 52.98 168.98 52.98 168.86 53.68"/>
      <polygon points="169.95 57.75 169.95 52.98 172.94 52.98 172.82 53.68 170.8 53.68 170.8 54.91 172.49 54.91 172.49 55.61 170.81 55.61 170.81 57.02 173.01 57.02 173.01 57.75 169.95 57.75"/>
      <path d="M175.23,53.66v1.45h.46c.47,0,.73-.05.91-.19.15-.12.24-.31.24-.56,0-.3-.17-.53-.46-.63-.16-.05-.35-.07-.63-.07h-.53ZM176.99,57.75c-.14-.24-.29-.47-.45-.74-.41-.66-.65-.96-.89-1.14-.13-.12-.25-.15-.42-.17v2.04h-.85v-4.77h1.43c.71,0,1.09.08,1.37.29.34.25.54.63.54,1.07,0,.79-.51,1.3-1.32,1.33.08.06.17.14.24.22.15.19.42.54.68.88.27.39.69.95.71.98h-1.03Z"/>
      <path d="M181.95,57.75l-1.36-2.39c-.28-.47-.6-1.14-.63-1.23.02.24.05.73.06,1.33l.04,2.29h-.84v-4.77h.96l1.39,2.41c.28.49.51.98.57,1.11,0-.11-.07-.72-.08-1.28l-.03-2.23h.82v4.77h-.88Z"/>
      <path d="M185.99,53.74c-.03.13-.65,1.96-.69,2.08h1.37c-.06-.16-.66-1.96-.68-2.08M187.33,57.75l-.46-1.24h-1.79l-.45,1.24h-.88l1.78-4.78h.99l1.74,4.78h-.93Z"/>
      <polygon points="192.24 53.68 190.86 53.68 190.86 57.75 190.02 57.75 190.02 53.68 188.66 53.68 188.66 52.98 192.36 52.98 192.24 53.68"/>
      <rect x="193.35" y="52.98" width=".86" height="4.77"/>
      <path d="M198.87,56.51c.12-.29.15-.58.15-1.07,0-.59-.06-.97-.21-1.27-.22-.43-.58-.6-1.09-.6-.43,0-.81.19-1,.5-.17.28-.24.67-.24,1.23,0,.64.11,1.11.3,1.43.17.3.54.46,1.02.46.53,0,.9-.22,1.07-.69M196.2,57.21c-.45-.48-.66-1.07-.66-1.86,0-1.52.83-2.45,2.2-2.45.77,0,1.33.25,1.73.75.35.4.51.96.51,1.72s-.15,1.32-.49,1.72c-.4.5-.91.74-1.69.74-.72,0-1.2-.19-1.6-.62"/>
      <path d="M204.09,57.75l-1.36-2.39c-.28-.47-.6-1.14-.63-1.23.02.24.04.73.05,1.33l.04,2.29h-.85v-4.77h.96l1.39,2.41c.28.49.51.98.57,1.11,0-.11-.07-.72-.08-1.28l-.03-2.23h.82v4.77h-.88Z"/>
      <path d="M208.13,53.74c-.03.13-.65,1.96-.69,2.08h1.37c-.05-.16-.65-1.96-.68-2.08M209.47,57.75l-.46-1.24h-1.78l-.46,1.24h-.88l1.78-4.78h.99l1.74,4.78h-.93Z"/>
      <polygon points="214.04 57.75 211.3 57.75 211.3 52.98 212.16 52.98 212.16 57.05 214.17 57.05 214.04 57.75"/>
      <path d="M219.35,57.84c-.82,0-1.47-.34-1.94-.94-.45-.57-.68-1.32-.68-2.23,0-.73.15-1.35.41-1.86.46-.89,1.29-1.43,2.25-1.43.59,0,1.14.17,1.53.49l-.43.57c-.35-.25-.69-.36-1.11-.36-.62,0-1.1.32-1.39.9-.2.4-.3.93-.3,1.68,0,.7.07,1.1.23,1.47.29.69.87,1.02,1.53,1.02.48,0,.82-.12,1.15-.39l.43.57c-.48.35-1.05.52-1.69.52"/>
      <rect x="222.1" y="52.98" width=".86" height="4.77"/>
      <polygon points="227.66 53.68 226.29 53.68 226.29 57.75 225.44 57.75 225.44 53.68 224.08 53.68 224.08 52.98 227.78 52.98 227.66 53.68"/>
      <path d="M230.63,55.81v1.93h-.88v-1.93l-1.7-2.84h1.04l.85,1.49c.11.19.23.44.28.57.06-.13.16-.35.28-.57l.86-1.49h.98l-1.72,2.84Z"/>
      <path d="M238.25,52.75c-.35-.44-.71-.55-1.31-.55h-.71v4.84h.69c.72,0,1.18-.19,1.46-.7.23-.42.34-.98.34-1.6,0-.87-.09-1.52-.46-1.99M239,56.9c-.44.55-1.02.85-2.1.85h-1.56v-6.25h1.45c1.08,0,1.77.24,2.34,1.03.37.52.56,1.23.56,2.1,0,1.01-.27,1.76-.68,2.27"/>
      <polygon points="241.05 57.75 241.05 52.98 244.05 52.98 243.93 53.68 241.9 53.68 241.9 54.91 243.59 54.91 243.59 55.61 241.91 55.61 241.91 57.02 244.12 57.02 244.12 57.75 241.05 57.75"/>
      <path d="M247.46,57.77h-.79l-1.81-4.79h.93l.97,2.53c.19.46.32.99.34,1.06.02-.08.14-.58.33-1.03l1.03-2.56h.88l-1.86,4.79Z"/>
      <polygon points="250.28 57.75 250.28 52.98 253.27 52.98 253.15 53.68 251.13 53.68 251.13 54.91 252.82 54.91 252.82 55.61 251.14 55.61 251.14 57.02 253.34 57.02 253.34 57.75 250.28 57.75"/>
      <polygon points="257.43 57.75 254.69 57.75 254.69 52.98 255.55 52.98 255.55 57.05 257.57 57.05 257.43 57.75"/>
      <path d="M261.5,56.51c.12-.29.16-.58.16-1.07,0-.59-.06-.97-.21-1.27-.22-.43-.58-.6-1.09-.6-.43,0-.81.19-1,.5-.17.28-.24.67-.24,1.23,0,.64.11,1.11.3,1.43.17.3.53.46,1.02.46.54,0,.9-.22,1.07-.69M258.84,57.21c-.45-.48-.66-1.07-.66-1.86,0-1.52.83-2.45,2.2-2.45.77,0,1.33.25,1.73.75.35.4.52.96.52,1.72s-.16,1.32-.49,1.72c-.4.5-.91.74-1.7.74-.72,0-1.2-.19-1.59-.62"/>
      <path d="M264.82,53.66v1.61h.76c.4,0,.62-.08.77-.24.14-.15.2-.34.2-.57,0-.27-.09-.46-.25-.6-.19-.15-.45-.2-.84-.2h-.62ZM266.82,55.62c-.34.25-.62.33-1.22.33h-.78v1.8h-.84v-4.77h1.39c.85,0,1.1.07,1.38.23.46.25.73.68.73,1.21,0,.56-.26.98-.65,1.21"/>
      <path d="M273.04,57.75l-.24-2.89c-.04-.38-.04-.88-.04-.97-.02.07-.15.57-.26.94l-.95,2.91h-.73l-.91-2.9c-.12-.35-.24-.89-.26-.99,0,.08-.03.61-.06.99l-.23,2.9h-.83l.49-4.77h1.13l.81,2.62c.11.34.23.9.25.97.02-.07.15-.62.25-.96l.81-2.63h1.17l.47,4.77h-.85Z"/>
      <polygon points="275.27 57.75 275.27 52.98 278.26 52.98 278.14 53.68 276.12 53.68 276.12 54.91 277.81 54.91 277.81 55.61 276.13 55.61 276.13 57.02 278.33 57.02 278.33 57.75 275.27 57.75"/>
      <path d="M282.45,57.75l-1.36-2.39c-.28-.47-.6-1.14-.63-1.23.02.24.04.73.05,1.33l.04,2.29h-.85v-4.77h.96l1.39,2.41c.28.49.51.98.57,1.11,0-.11-.08-.72-.08-1.28l-.02-2.23h.82v4.77h-.88Z"/>
      <polygon points="288.03 53.68 286.65 53.68 286.65 57.75 285.8 57.75 285.8 53.68 284.45 53.68 284.45 52.98 288.15 52.98 288.03 53.68"/>
      <path d="M293.41,57.84c-.82,0-1.47-.34-1.94-.94-.44-.57-.68-1.32-.68-2.23,0-.73.15-1.35.41-1.86.47-.89,1.29-1.43,2.25-1.43.59,0,1.14.17,1.53.49l-.42.57c-.35-.25-.69-.36-1.11-.36-.62,0-1.1.32-1.39.9-.2.4-.3.93-.3,1.68,0,.7.07,1.1.23,1.47.29.69.87,1.02,1.54,1.02.48,0,.81-.12,1.15-.39l.43.57c-.48.35-1.06.52-1.69.52"/>
      <polygon points="296.14 57.75 296.14 52.98 299.13 52.98 299.01 53.68 296.99 53.68 296.99 54.91 298.68 54.91 298.68 55.61 297 55.61 297 57.02 299.2 57.02 299.2 57.75 296.14 57.75"/>
      <path d="M303.32,57.75l-1.37-2.39c-.28-.47-.6-1.14-.63-1.23.02.24.05.73.06,1.33l.04,2.29h-.84v-4.77h.96l1.39,2.41c.28.49.51.98.57,1.11-.01-.11-.07-.72-.08-1.28l-.03-2.23h.82v4.77h-.88Z"/>
      <polygon points="308.9 53.68 307.52 53.68 307.52 57.75 306.68 57.75 306.68 53.68 305.32 53.68 305.32 52.98 309.02 52.98 308.9 53.68"/>
      <polygon points="309.99 57.75 309.99 52.98 312.98 52.98 312.87 53.68 310.84 53.68 310.84 54.91 312.53 54.91 312.53 55.61 310.85 55.61 310.85 57.02 313.05 57.02 313.05 57.75 309.99 57.75"/>
      <path d="M315.27,53.66v1.45h.46c.47,0,.73-.05.91-.19.16-.12.24-.31.24-.56,0-.3-.17-.53-.46-.63-.16-.05-.35-.07-.62-.07h-.53ZM317.03,57.75c-.14-.24-.29-.47-.45-.74-.41-.66-.65-.96-.89-1.14-.14-.12-.25-.15-.42-.17v2.04h-.84v-4.77h1.42c.72,0,1.09.08,1.37.29.34.25.55.63.55,1.07,0,.79-.52,1.3-1.32,1.33.08.06.17.14.23.22.16.19.43.54.68.88.27.39.69.95.71.98h-1.03Z"/>
      <path d="M143.07,31.28h-4.74v-1.57h11.8v1.57h-4.73s0-.02,0,0c0,.88.2,1.59.6,2.15.39.57.88,1.02,1.46,1.35.59.33,1.19.55,1.83.69.62.13,1.16.2,1.59.21.07,0,.1,0,.09.04,0,.03-.02.06-.04.1l-1.18,1.32c-.47,0-.98-.07-1.52-.22-.55-.15-1.08-.35-1.6-.61-.48-.25-.92-.56-1.33-.9-.4-.35-.72-.73-.94-1.15,0-.04-.14-.29-.14-.29,0,0-.09.25-.11.29-.19.38-.46.73-.8,1.06-.34.33-.73.62-1.15.87-.55.3-1.14.54-1.74.7-.61.17-1.17.25-1.69.25l-1.18-1.32s-.05-.07-.05-.1c0-.03.03-.04.1-.04.44-.01,1-.08,1.64-.21.65-.14,1.27-.38,1.86-.74.55-.33,1.02-.78,1.4-1.34.37-.55.57-1.25.58-2.1,0-.02,0,0,0,0M143.13,40.02h-6.66v-1.58h15.51v1.58h-6.64v4.85h-2.21v-4.85Z"/>
      <path d="M123.25,31.28h-2.37v-1.57h7.04v1.57h-2.39v2.02c0,.82.09,1.56.26,2.23.18.67.42,1.23.71,1.71.29.47.62.85,1,1.15.38.29.78.49,1.22.6.06,0,.09.03.1.06,0,.03-.01.05-.05.08l-1.14,1.23c-.4-.06-.96-.38-1.68-.97-.72-.58-1.17-1.22-1.42-1.89-.07-.18-.12-.41-.12-.41-.09.29-.09.28-.13.41-.22.68-.68,1.31-1.38,1.89-.7.59-1.27.9-1.72.97l-1.14-1.23s0-.06-.01-.09c0-.03.02-.05.06-.06.44-.12.85-.33,1.23-.63.37-.3.71-.7,1-1.18.28-.48.51-1.05.68-1.71.17-.66.25-1.37.25-2.16v-2.02Z"/>
      <path d="M129.4,29.75c.1.14.15.31.15.51v3.86h-2.44v1.59h2.44v9.15h1.97v-15.27h-2.38c.11.04.2.08.26.16"/>
      <path d="M132.39,29.75c.1.14.15.31.15.51v14.59h1.96v-15.27h-2.37c.11.04.2.08.25.16"/>
      <path d="M173.42,31.28h-2.38v-1.57h7.04v1.57h-2.39v2.02c0,.82.09,1.56.26,2.23.18.67.41,1.23.7,1.71.29.47.63.85,1,1.15.38.29.78.49,1.21.6.07,0,.1.03.1.06,0,.03-.01.05-.04.08l-1.15,1.23c-.4-.06-.96-.38-1.68-.97-.72-.58-1.2-1.21-1.42-1.89-.03-.09-.12-.37-.12-.37,0,0-.11.29-.12.37-.22.68-.69,1.31-1.38,1.89-.7.59-1.27.9-1.72.97l-1.14-1.23s0-.06,0-.09c0-.03.02-.05.06-.06.44-.12.85-.33,1.23-.63.37-.3.71-.7,1-1.18.28-.48.51-1.05.68-1.71.17-.66.26-1.37.26-2.16v-2.02Z"/>
      <path d="M179.58,29.75c.09.14.15.31.15.51v3.86h-2.44v1.59h2.44v9.15h1.97v-15.27h-2.38c.11.04.2.08.26.16"/>
      <path d="M182.57,29.75c.1.14.15.31.15.51v14.59h1.97v-15.27h-2.38c.11.04.2.08.26.16"/>
      <path d="M160.06,36.82h-6.58v-1.58h11.19c.22-.34.36-.72.43-1.13.06-.42.1-.86.1-1.56v-.91c0-.13-.03-.22-.07-.26-.05-.05-.15-.07-.28-.07h-9.72v-1.59h12.06c.06,0,.1.02.13.04.03.03.04.08.04.16v2.84c0,.75-.04,1.19-.14,1.54-.1.35-.25.66-.46.94h2.21v1.58h-6.56v2.55h4.63c.06,0,.1.01.13.05.03.02.05.07.05.13v5.3h-2.2v-3.71c0-.06-.01-.11-.04-.14-.03-.03-.08-.04-.14-.04h-9.42v-1.58h4.63v-2.55Z"/>
      <path d="M211.01,30.31c-.66,0-1.22.25-1.7.74-.47.5-.71,1.09-.71,1.78s.24,1.28.71,1.78c.48.49,1.05.74,1.7.74s1.22-.25,1.7-.74c.48-.5.72-1.08.72-1.78s-.24-1.28-.72-1.78c-.47-.49-1.04-.74-1.7-.74M211.01,28.71c1.25,0,2.33.4,3.22,1.21.89.81,1.34,1.78,1.34,2.91s-.45,2.1-1.34,2.9c-.89.8-1.97,1.2-3.22,1.2s-2.31-.4-3.21-1.2c-.89-.8-1.34-1.77-1.34-2.9s.45-2.11,1.34-2.91c.9-.81,1.97-1.21,3.21-1.21M214.62,39.67v5.17h-2.11v-5.17h-2.99v5.17h-2.11v-5.17h-4.14v-1.64h15.49v1.64h-4.13Z"/>
      <path d="M195.69,38.57c-.41-.24-.79-.56-1.15-.96-.46-.49-.84-1.09-1.14-1.81-.31-.72-.46-1.52-.46-2.41v-2.11h3.06v-1.57h-8.44v1.57h3.06v2.11c0,.81-.12,1.54-.38,2.21-.25.66-.57,1.24-.98,1.73-.37.47-.79.86-1.25,1.15-.46.3-.9.49-1.34.59-.04,0-.07.03-.07.05,0,.03,0,.06.02.09l1.14,1.24c.33-.1.68-.24,1.04-.43.37-.2.71-.42,1.04-.7.4-.31.76-.67,1.08-1.07.33-.39.57-.79.73-1.22.04-.08.13-.36.13-.36,0,0,.09.29.11.36.16.42.41.83.73,1.22.32.4.68.75,1.08,1.06.34.27.69.5,1.04.71.36.2.71.34,1.04.44l1.14-1.24s.04-.06.04-.09c0-.02-.03-.04-.09-.05-.39-.1-.79-.26-1.19-.5"/>
      <path d="M200.4,34.02v-4.46h-2.65c.15.03.29.09.37.22.12.16.18.34.18.51v14.56h2.1v-9.24h2.29v-1.58h-2.29Z"/>
      <path d="M221.67,29.98c.12.14.18.31.18.51v4.62c0,.75.16,1.29.48,1.62.32.32.84.48,1.54.48h9.72v-1.57h-9.23c-.09,0-.17-.03-.24-.09-.06-.06-.09-.14-.09-.27v-3.92h9.47v-1.56h-12.15c.13.02.25.08.33.17"/>
      <path d="M248.07,29.8c.12.16.18.33.18.51v14.56h2.1v-15.28h-2.61c.14.04.25.1.33.21"/>
      <path d="M245.13,38.39c-.47-.29-.9-.68-1.31-1.15-.4-.48-.73-1.06-1-1.71-.28-.67-.42-1.41-.42-2.23v-3.54h-2.73c.14.03.26.09.35.19.13.14.19.31.19.5v2.85c0,.71-.11,1.38-.32,1.98-.21.6-.48,1.13-.81,1.59-.42.58-.89,1.04-1.41,1.39-.52.35-1.02.59-1.49.69-.05.02-.07.04-.08.06,0,.03,0,.06.03.08l1.1,1.27c.37-.1.74-.26,1.13-.48.39-.22.77-.48,1.13-.78.38-.3.71-.63,1.02-.99.3-.35.52-.7.68-1.05.03-.07.13-.35.13-.35,0,0,.11.28.13.35.14.34.36.69.65,1.03.3.34.62.67.99.98.37.3.76.57,1.17.8.4.23.79.39,1.15.49l1.09-1.27s.04-.05.04-.08c0-.02-.04-.04-.09-.06-.4-.08-.83-.27-1.29-.56"/>
      <path d="M226.19,38.46c.06.03.12.07.17.12.11.12.17.29.17.48v2.66h-6.68v1.58h15.49v-1.58h-6.63v-3.26h-2.52Z"/>
      <path d="M265.72,29.74c.09.14.14.31.14.51v3.59h-1.34v-4.28h-2.46c.13.03.24.08.3.17.1.14.15.31.15.51v14.57h2v-9.39h1.34v9.39h2v-15.25h-2.45c.13.03.24.08.31.17"/>
      <path d="M261.01,29.71h-6.44v1.58h4.45v.05c0,.88-.08,1.68-.26,2.39-.17.72-.41,1.36-.72,1.91-.54.98-1.23,1.75-2.07,2.3-.84.55-1.69.95-2.57,1.18-.05.01-.07.03-.08.05-.01.03,0,.06.03.09l1.18,1c.88-.19,1.79-.57,2.72-1.15.93-.58,1.73-1.37,2.4-2.37.47-.7.85-1.48,1.12-2.35.28-.87.41-1.83.41-2.9v-1.62s0-.09-.04-.12c-.02-.04-.07-.05-.13-.05"/>
      <path d="M277.11,35.04c0,.11-.02.18-.06.22-.04.04-.12.06-.22.06h-3.3c-.11,0-.18,0-.22-.04-.04-.02-.06-.1-.06-.23v-1.56h3.87v1.54ZM276.65,29.66c.11.02.22.06.3.13.11.1.17.25.17.43v1.67h-3.87v-2.1h-2.45c.06.03.12.06.17.11.11.1.17.24.17.43v5.15c0,.47.12.83.37,1.06.25.24.59.36,1.02.36h5.32c.44,0,.78-.13,1.02-.36.25-.24.37-.6.37-1.06v-5.81h-2.58Z"/>
      <path d="M284.32,31.98v-2.42h-2.61c.13.04.25.1.33.21.12.17.18.34.18.51v7.08h2.11v-3.61h2.29v-1.76h-2.29Z"/>
      <path d="M276.04,43.28c-.06,0-.1,0-.13-.03-.03-.02-.05-.06-.05-.1v-.92h8.12c.12,0,.22-.03.27-.09.05-.07.08-.14.08-.24v-3.46c0-.1-.02-.18-.08-.25-.06-.08-.15-.12-.27-.12h-10.28v1.53h8.48v1.12h-8.48v2.69c0,.52.11.89.32,1.11.21.22.58.33,1.09.33h9.4v-1.55h-8.46Z"/>
      <path d="M296.63,29.72c.1.14.16.31.16.51v2.63h-2.63v1.58h2.63v5.81h1.97v-10.7h-2.43c.13.04.24.09.3.17"/>
      <path d="M299.62,29.72c.1.14.16.31.16.51v10.02h1.97v-10.7h-2.43c.13.04.24.09.31.17"/>
      <path d="M295.71,37.27c-.44-.12-.88-.32-1.31-.6-.43-.28-.81-.66-1.12-1.13-.25-.38-.44-.81-.6-1.3-.16-.49-.24-1.04-.24-1.68v-2.9h-2.53c.14.03.26.08.3.19.06.16.1.32.1.5v2.19c0,.68-.08,1.28-.24,1.8-.16.52-.37.96-.64,1.34-.32.43-.68.78-1.1,1.03-.41.25-.84.43-1.29.54-.05,0-.07.03-.08.06,0,.03,0,.06.02.08l1.07,1.13c.22-.02.52-.12.89-.28.37-.16.74-.39,1.1-.68.26-.2.49-.42.7-.66.21-.24.38-.5.49-.79.02-.06.14-.32.14-.32,0,0,.08.26.11.32.12.27.29.52.51.77.21.24.44.46.71.66.38.3.75.53,1.12.7.37.18.66.28.87.3l1.07-1.13s.04-.05.04-.08c0-.03-.03-.05-.09-.06"/>
      <path d="M293.4,43.22c-.08,0-.14-.02-.19-.07-.05-.05-.07-.11-.07-.19v-3.59h-2.16v4.06c0,.47.11.81.34,1.03.24.23.59.34,1.08.34h9.53v-1.59h-8.53Z"/>
      <path d="M315.76,29.79c.12.16.19.34.19.51v3.76h-3.1v1.59h3.1v9.18h2.09v-15.28h-2.73c.2.02.35.09.45.23"/>
      <path d="M307.39,38.43c-.09,0-.17-.03-.24-.09-.06-.06-.09-.15-.09-.26v-2.45h4.74v-1.57h-4.74v-2.68h6.14v-1.58h-8.27v8.03c0,.75.18,1.3.53,1.65.35.35.88.53,1.58.53h6.86v-1.58h-6.51Z"/>
      <path d="M28.74,16.43c6.6,1.55,12.45,5.29,16.74,10.64-2.93-8.37-8.51-15.79-16.47-20.83C20.11.59,9.79-1.1,0,.67c1.74,6.5,5.02,12.54,9.71,17.51,6.04-2.62,12.67-3.25,19.02-1.76Z"/>
      <path d="M29.53,26.7c-5.27.98-9.96,3.96-13.22,8.41,4.5,2.76,9.88,3.93,15.32,2.92,5.45-1.01,10.04-4.03,13.25-8.22-4.64-2.99-10.09-4.09-15.35-3.12Z"/>
      <path d="M45.26,28.69c-4.18-5.62-10.08-9.55-16.79-11.13-7.2-1.69-14.79-.55-21.37,3.23,2.93,4.24,6.87,7.72,11.57,10.02,3.02-2.69,6.68-4.51,10.65-5.25,5.46-1.01,11.1.1,15.93,3.13Z"/>
      <path d="M51.89,63.89c-.89,1.47-1.42,2.22-2.88,4.04l-4.17-2.8c1.51-2.35,1.82-2.97,2.48-4.3,1.02-2.13,1.42-4.26,1.42-7.41v-24.07h5.55v29.09c-.8,2.58-1.2,3.51-2.4,5.46Z"/>
      <path d="M82.06,53.45c-2.61,2.78-6.34,4.16-11.44,4.16h-10.45v-28.27h10.49c5.35,0,8.69,1.2,11.48,4.16,2.44,2.61,3.81,6.21,3.81,9.89s-1.41,7.41-3.9,10.07ZM76.88,35.76c-1.5-1.11-3.68-1.67-6.77-1.67h-4.28v18.76h4.28c6.43,0,10.02-3.38,10.02-9.42,0-3.21-1.24-6.17-3.26-7.67Z"/>
      <path d="M111.58,35.78c-1.84-1.33-4.03-1.97-6.52-1.97-5.45,0-9.35,3.86-9.35,9.22,0,6.09,4.03,10.08,10.21,10.08,2.01,0,3.69-.34,6.22-1.33l.99,4.55c-1.8.81-2.53,1.07-3.82,1.37-1.37.3-2.87.47-4.55.57-4.42,0-7.59-1.12-10.25-3.52-3-2.7-4.76-6.91-4.76-11.32,0-4.12,1.54-7.85,4.33-10.59,2.83-2.79,6-3.95,10.68-3.95,3.6,0,6.43.86,8.88,2.7l-2.06,4.29Z"/>
    </g>
  </svg>
